{
    "asset" : {
        "generator" : "Khronos glTF Blender I/O v3.3.27",
        "version" : "2.0"
    },
    "scene" : 0,
    "scenes" : [
        {
            "name" : "Scene",
            "nodes" : [
                0
            ]
        }
    ],
    "nodes" : [
        {
            "mesh" : 0,
            "name" : "Cube"
        }
    ],
    "materials" : [
        {
            "doubleSided" : true,
            "name" : "Material",
            "pbrMetallicRoughness" : {}
        }
    ],
    "meshes" : [
        {
            "name" : "Cube",
            "primitives" : [
                {
                    "attributes" : {
                        "POSITION" : 0,
                        "NORMAL" : 1,
                        "TEXCOORD_0" : 2
                    },
                    "indices" : 3,
                    "material" : 0
                }
            ]
        }
    ],
    "accessors" : [
        {
            "bufferView" : 0,
            "componentType" : 5126,
            "count" : 859,
            "max" : [
                0.8499170541763306,
                2.020270824432373,
                0.4867028295993805
            ],
            "min" : [
                -3.4634037017822266,
                -1.6674717664718628,
                -0.48670288920402527
            ],
            "type" : "VEC3"
        },
        {
            "bufferView" : 1,
            "componentType" : 5126,
            "count" : 859,
            "type" : "VEC3"
        },
        {
            "bufferView" : 2,
            "componentType" : 5126,
            "count" : 859,
            "type" : "VEC2"
        },
        {
            "bufferView" : 3,
            "componentType" : 5123,
            "count" : 4182,
            "type" : "SCALAR"
        }
    ],
    "bufferViews" : [
        {
            "buffer" : 0,
            "byteLength" : 10308,
            "byteOffset" : 0,
            "target" : 34962
        },
        {
            "buffer" : 0,
            "byteLength" : 10308,
            "byteOffset" : 10308,
            "target" : 34962
        },
        {
            "buffer" : 0,
            "byteLength" : 6872,
            "byteOffset" : 20616,
            "target" : 34962
        },
        {
            "buffer" : 0,
            "byteLength" : 8364,
            "byteOffset" : 27488,
            "target" : 34963
        }
    ],
    "buffers" : [
        {
            "byteLength" : 35852,
            "uri" : "data:application/octet-stream;base64,"
        }
    ]
}
